<svg width="182" height="61" viewBox="0 0 182 61" fill="none" xmlns="http://www.w3.org/2000/svg">
<path d="M38.0273 21.2129L37.9688 24.7285H34.9805V30.3242C34.9805 30.3828 34.1504 31.877 32.4902 34.8066C30.8496 37.7168 28.9453 41.0762 26.7773 44.8848C24.6094 48.6738 23.0566 51.3984 22.1191 53.0586C21.4746 53.0586 20.5078 52.707 19.2188 52.0039C17.9492 51.2812 16.6406 50.2656 15.293 48.957C13.9453 47.6289 12.832 46.1152 11.9531 44.416C11.0938 42.6973 10.6641 40.8613 10.6641 38.9082C10.6641 37.6387 10.8301 36.6328 11.1621 35.8906C11.4941 35.1484 11.9336 34.416 12.4805 33.6934C13.0273 32.9512 13.3008 32.3848 13.3008 31.9941C13.3008 31.3105 12.7246 30.9688 11.5723 30.9688C10.8496 30.9688 10.2246 31.1543 9.69727 31.5254C9.18945 31.8965 8.34961 32.7559 7.17773 34.1035L3.39844 30.6758C4.12109 30.0703 4.78516 29.6113 5.39062 29.2988C6.01562 28.9863 6.60156 28.7812 7.14844 28.6836C7.71484 28.5664 8.50586 28.4883 9.52148 28.4492C12.666 28.4492 14.7754 29.25 15.8496 30.8516C16.9238 32.4336 17.4609 34.4551 17.4609 36.916C17.4609 37.1113 17.373 38.0098 17.1973 39.6113C17.041 41.1934 16.9629 42.5801 16.9629 43.7715C16.9629 46.8574 17.5 48.5371 18.5742 48.8105C19.1602 48.8105 19.8828 48.0684 20.7422 46.584L29.6777 30.4414V24.7285H0V21.2129H38.0273Z" fill="white"/>
<path d="M66.2988 24.7285H46.7871V29.416C46.8848 29.416 46.9629 29.4551 47.0215 29.5332C47.0801 29.6113 47.1484 29.6504 47.2266 29.6504C47.1875 29.6504 47.5879 29.5332 48.4277 29.2988C49.2871 29.0645 50.2637 28.8594 51.3574 28.6836C52.4512 28.4883 53.5059 28.3906 54.5215 28.3906C56.8652 28.3906 58.7109 28.7129 60.0586 29.3574C61.4062 30.002 62.373 30.9102 62.959 32.082C63.5645 33.2539 63.9258 34.5723 64.043 36.0371C64.1797 37.4824 64.248 39.4746 64.248 42.0137V53.5859C63.1738 53.1562 62.207 52.7363 61.3477 52.3262C60.4883 51.8965 59.8926 51.584 59.5605 51.3887C59.5605 50.7441 59.4434 50.3438 59.209 50.1875C58.5645 50.5586 57.8418 50.9688 57.041 51.418C56.2402 51.8477 55.1953 52.2285 53.9062 52.5605C52.6172 52.8926 51.084 53.0586 49.3066 53.0586C47.6074 53.0586 45.9473 52.7461 44.3262 52.1211C42.7051 51.4961 41.3867 50.6074 40.3711 49.4551C39.375 48.2832 38.877 46.9648 38.877 45.5C38.877 44.1328 39.5117 42.707 40.7812 41.2227C42.0508 39.7188 43.75 38.4785 45.8789 37.502C48.0078 36.5059 50.332 36.0078 52.8516 36.0078C54.2188 36.0078 55.5176 36.2129 56.748 36.623C57.9785 37.0137 58.916 37.4531 59.5605 37.9414V35.2461C58.7988 34.2305 58.0371 33.5273 57.2754 33.1367C56.5137 32.7461 55.3418 32.5508 53.7598 32.5508C51.709 32.6289 50.0879 32.8047 48.8965 33.0781C47.7246 33.332 46.4551 33.7422 45.0879 34.3086C43.7402 34.8555 42.6074 35.2852 41.6895 35.5977V33.4297C41.8262 33.3125 42.0215 33.1465 42.2754 32.9316C42.5293 32.7168 42.6953 32.5605 42.7734 32.4629C42.8711 32.3652 42.9297 32.3066 42.9492 32.2871V24.7285H36.9434V21.2129H66.2988V24.7285ZM59.5605 43.2734C59.5605 42.375 58.5547 41.623 56.543 41.0176C54.5312 40.4121 53.1055 40.1094 52.2656 40.1094C50.1367 40.1094 48.1934 40.5586 46.4355 41.457C44.6973 42.3555 43.3301 43.4004 42.334 44.5918C41.3379 45.7637 40.8398 46.7305 40.8398 47.4922C41.1133 48.3125 41.7188 48.8789 42.6562 49.1914C43.6133 49.4844 44.6289 49.6309 45.7031 49.6309C47.6953 49.6309 49.541 49.3672 51.2402 48.8398C52.959 48.3125 54.4434 47.668 55.6934 46.9062C56.9434 46.125 57.9004 45.3828 58.5645 44.6797C59.2285 43.9766 59.5605 43.5078 59.5605 43.2734Z" fill="white"/>
<path d="M95.7422 24.7285H92.5488V35.832C91.416 35.168 89.7949 34.5918 87.6855 34.1035C85.5762 33.6152 83.7793 33.3711 82.2949 33.3711C81.0645 33.3711 79.5898 33.5176 77.8711 33.8105C76.1719 34.084 74.6387 34.582 73.2715 35.3047C71.9238 36.0078 71.25 36.9453 71.25 38.1172C71.25 38.6055 71.4453 39.123 71.8359 39.6699C72.2461 40.1973 72.8711 40.4609 73.7109 40.4609C74.6289 40.4609 75.957 40.1484 77.6953 39.5234C79.4531 38.8789 80.7422 38.4395 81.5625 38.2051C82.4023 37.9512 83.623 37.8242 85.2246 37.8242C86.7285 37.8242 88.1543 38.0977 89.502 38.6445C90.8691 39.1719 91.9531 39.9434 92.7539 40.959C93.5742 41.9746 93.9844 43.1465 93.9844 44.4746C93.9844 46.0566 93.4082 47.4922 92.2559 48.7812C91.1035 50.0703 89.7168 51.0859 88.0957 51.8281C86.4941 52.5508 84.9609 52.9609 83.4961 53.0586C84.9023 54.4648 86.2402 55.168 87.5098 55.168C87.9199 55.168 88.3594 55.1094 88.8281 54.9922L91.7871 59.8262C91.6309 59.9629 91.25 60.1289 90.6445 60.3242C90.0586 60.5195 89.1992 60.6172 88.0664 60.6172C86.4453 60.6172 85.2148 60.1582 84.375 59.2402C83.5352 58.3223 82.666 57.082 81.7676 55.5195C80.8887 53.957 80.166 53.1758 79.5996 53.1758C78.1348 53.1172 76.6797 52.9707 75.2344 52.7363C73.8086 52.4824 72.4805 51.9746 71.25 51.2129C70.0195 50.4512 69.4043 49.4062 69.4043 48.0781C69.4043 47.1992 69.6973 46.5742 70.2832 46.2031C70.8887 45.8125 71.5723 45.6172 72.334 45.6172C73.2715 45.6172 74.0234 45.7539 74.5898 46.0273C75.1562 46.3008 75.8496 46.7207 76.6699 47.2871C77.5098 47.834 78.3398 48.2539 79.1602 48.5469C80 48.8398 81.123 48.9863 82.5293 48.9863C83.5254 48.9863 84.8438 48.8105 86.4844 48.459C88.1445 48.1074 89.6094 47.5898 90.8789 46.9062C92.1484 46.2031 92.7832 45.3535 92.7832 44.3574C92.7832 43.8105 92.5879 43.3711 92.1973 43.0391C91.8066 42.6875 91.3574 42.4531 90.8496 42.3359C90.3418 42.1992 89.8145 42.1309 89.2676 42.1309C88.5449 42.1309 87.7734 42.2383 86.9531 42.4531C86.1523 42.668 84.5898 43.0879 82.2656 43.7129C79.9414 44.3379 78.5156 44.6504 77.9883 44.6504C76.6406 44.6504 75.2539 44.2695 73.8281 43.5078C72.4219 42.7266 71.2402 41.6426 70.2832 40.2559C69.3457 38.8691 68.8672 37.3555 68.8477 35.7148C68.8477 33.9375 69.5117 32.502 70.8398 31.4082C72.168 30.2949 73.7598 29.5039 75.6152 29.0352C77.4707 28.5664 79.2188 28.332 80.8594 28.332C81.9531 28.332 83.3301 28.5078 84.9902 28.8594C86.6699 29.1914 87.9492 29.4746 88.8281 29.709V24.7285H65.5078V21.2129H95.7422V24.7285Z" fill="white"/>
<path d="M126.709 24.7285H120.117V32.7852C120.117 32.9609 120.391 33.3125 120.938 33.8398C121.504 34.3477 122.002 34.8652 122.432 35.3926C122.881 35.9199 123.291 36.7109 123.662 37.7656C124.053 38.8008 124.248 40.0801 124.248 41.6035C124.248 43.6738 123.721 45.5977 122.666 47.375C121.611 49.1523 120.156 50.5488 118.301 51.5645C116.445 52.5605 114.404 53.0586 112.178 53.0586C110.713 53.0586 109.092 52.6875 107.314 51.9453C105.537 51.1836 103.848 50.1387 102.246 48.8105C100.664 47.4824 99.3848 45.9883 98.4082 44.3281C97.4316 42.6484 96.9434 40.9199 96.9434 39.1426C96.9434 37.8535 97.4121 36.3691 98.3496 34.6895C99.2871 33.0098 100.635 31.5645 102.393 30.3535C104.17 29.123 106.299 28.5078 108.779 28.5078C110.146 28.5078 112.168 28.8691 114.844 29.5918C114.961 29.5918 115.02 29.5137 115.02 29.3574V24.7285H94.9219V21.2129H126.709V24.7285ZM119.941 37.707C119.941 36.2227 119.561 35.0215 118.799 34.1035C118.057 33.1855 117.217 32.5508 116.279 32.1992C115.361 31.8281 114.6 31.6426 113.994 31.6426C113.057 31.6426 111.865 31.916 110.42 32.4629C108.994 32.9902 107.578 33.8008 106.172 34.8945C104.766 35.9883 103.594 37.3652 102.656 39.0254C101.738 40.666 101.279 42.5215 101.279 44.5918C101.279 45.4512 101.572 46.291 102.158 47.1113C102.744 47.9316 103.506 48.6055 104.443 49.1328C105.381 49.6406 106.348 49.8945 107.344 49.8945C108.34 49.8945 109.58 49.582 111.064 48.957C112.549 48.332 113.955 47.4824 115.283 46.4082C116.631 45.3145 117.744 44.0254 118.623 42.541C119.502 41.0566 119.941 39.4453 119.941 37.707Z" fill="white"/>
<path d="M157.471 24.7285H150.879V32.7852C150.879 32.9609 151.152 33.3125 151.699 33.8398C152.266 34.3477 152.764 34.8652 153.193 35.3926C153.643 35.9199 154.053 36.7109 154.424 37.7656C154.814 38.8008 155.01 40.0801 155.01 41.6035C155.01 43.6738 154.482 45.5977 153.428 47.375C152.373 49.1523 150.918 50.5488 149.062 51.5645C147.207 52.5605 145.166 53.0586 142.939 53.0586C141.475 53.0586 139.854 52.6875 138.076 51.9453C136.299 51.1836 134.609 50.1387 133.008 48.8105C131.426 47.4824 130.146 45.9883 129.17 44.3281C128.193 42.6484 127.705 40.9199 127.705 39.1426C127.705 37.8535 128.174 36.3691 129.111 34.6895C130.049 33.0098 131.396 31.5645 133.154 30.3535C134.932 29.123 137.061 28.5078 139.541 28.5078C140.908 28.5078 142.93 28.8691 145.605 29.5918C145.723 29.5918 145.781 29.5137 145.781 29.3574V24.7285H125.684V21.2129H157.471V24.7285ZM150.703 37.707C150.703 36.2227 150.322 35.0215 149.561 34.1035C148.818 33.1855 147.979 32.5508 147.041 32.1992C146.123 31.8281 145.361 31.6426 144.756 31.6426C143.818 31.6426 142.627 31.916 141.182 32.4629C139.756 32.9902 138.34 33.8008 136.934 34.8945C135.527 35.9883 134.355 37.3652 133.418 39.0254C132.5 40.666 132.041 42.5215 132.041 44.5918C132.041 45.4512 132.334 46.291 132.92 47.1113C133.506 47.9316 134.268 48.6055 135.205 49.1328C136.143 49.6406 137.109 49.8945 138.105 49.8945C139.102 49.8945 140.342 49.582 141.826 48.957C143.311 48.332 144.717 47.4824 146.045 46.4082C147.393 45.3145 148.506 44.0254 149.385 42.541C150.264 41.0566 150.703 39.4453 150.703 37.707Z" fill="white"/>
<path d="M169.922 24.7285H166.816V21.2129H169.922V24.7285ZM159.902 24.7285H156.562V21.2129H159.902V24.7285ZM165.85 17.668V53.7324C165.771 53.7324 165.508 53.6152 165.059 53.3809C164.629 53.166 164.131 52.9121 163.564 52.6191C162.998 52.3262 162.412 52.0332 161.807 51.7402C161.201 51.4277 160.869 51.2715 160.811 51.2715V17.7266C160.713 15.4023 160.312 13.2246 159.609 11.1934C158.906 9.16211 158.115 7.47266 157.236 6.125C156.377 4.77734 155.449 3.53711 154.453 2.4043C153.438 1.27148 152.812 0.578125 152.578 0.324219H158.818C160.479 1.98438 161.846 3.88867 162.92 6.03711C163.994 8.16602 164.746 10.2461 165.176 12.2773C165.625 14.2891 165.85 16.0859 165.85 17.668Z" fill="white"/>
<path d="M181.084 24.7285H169.16V21.2129H181.084V24.7285ZM177.744 53.6738L172.822 50.9492V28.332H177.744V53.6738Z" fill="white"/>
</svg>
